<svg width="268" height="101" viewBox="0 0 268 101" fill="none" xmlns="http://www.w3.org/2000/svg">
<path d="M3.15 57.5189V31.4909H20.358L20.34 35.2529H7.56V42.5429H18.846V46.2509H7.524V53.7029L20.61 53.7209V57.5189H3.15ZM39.4383 46.5929V49.8689L29.9343 49.8869V46.6109L39.4383 46.5929Z" fill="white"/>
<path d="M27.4909 62.2182C165.978 59.633 206.516 45.5168 209.474 38.7818" stroke="white" stroke-opacity="0.47" stroke-width="31" stroke-linecap="round"/>
<path d="M60.0621 31.1309C61.9581 31.1309 63.6441 31.5209 65.1201 32.3009C66.6081 33.0809 67.8021 34.1309 68.7021 35.4509C69.6141 36.7589 70.1541 38.2229 70.3221 39.8429H65.6961C65.4321 38.4149 64.8201 37.2209 63.8601 36.2609C62.9001 35.2889 61.5921 34.8029 59.9361 34.8029C57.8601 34.8029 56.2581 35.5589 55.1301 37.0709C54.0021 38.5709 53.4381 41.0129 53.4381 44.3969C53.4381 47.8169 54.0021 50.3069 55.1301 51.8669C56.2581 53.4269 57.8601 54.2069 59.9361 54.2069C61.0401 54.2069 61.9881 53.9669 62.7801 53.4869C63.5721 52.9949 64.2081 52.3469 64.6881 51.5429C65.1801 50.7269 65.5161 49.8389 65.6961 48.8789H70.3221C70.1181 50.4629 69.6441 51.9389 68.9001 53.3069C68.1561 54.6749 67.0641 55.7789 65.6241 56.6189C64.1961 57.4589 62.3421 57.8789 60.0621 57.8789C57.6741 57.8789 55.6221 57.3329 53.9061 56.2409C52.2021 55.1369 50.8881 53.5769 49.9641 51.5609C49.0521 49.5329 48.5961 47.1269 48.5961 44.3429C48.5961 41.5709 49.0521 39.2009 49.9641 37.2329C50.8761 35.2529 52.1841 33.7409 53.8881 32.6969C55.6041 31.6529 57.6621 31.1309 60.0621 31.1309ZM74.6097 57.5189V30.7709H78.9297V41.6069C79.3857 40.9109 80.0517 40.2629 80.9277 39.6629C81.8157 39.0509 83.0037 38.7449 84.4917 38.7449C85.6797 38.7449 86.7657 38.9729 87.7497 39.4289C88.7337 39.8849 89.5197 40.5449 90.1077 41.4089C90.6957 42.2609 90.9897 43.2809 90.9897 44.4689V57.5189H86.5977V45.2069C86.5977 44.2469 86.2557 43.5029 85.5717 42.9749C84.8877 42.4469 84.0357 42.1829 83.0157 42.1829C81.9717 42.1829 81.0357 42.4529 80.2077 42.9929C79.3917 43.5209 78.9837 44.3189 78.9837 45.3869V57.5189H74.6097ZM100.837 57.8789C99.0489 57.8789 97.5669 57.3989 96.3909 56.4389C95.2149 55.4669 94.6269 54.0989 94.6269 52.3349C94.6269 50.2829 95.3649 48.7349 96.8409 47.6909C98.3289 46.6469 100.699 46.1009 103.951 46.0529L106.723 45.9809V44.7209C106.723 43.7369 106.429 42.9689 105.841 42.4169C105.253 41.8649 104.353 41.5889 103.141 41.5889C102.229 41.6009 101.401 41.8169 100.657 42.2369C99.9129 42.6569 99.4209 43.3469 99.1809 44.3069H95.4549C95.5509 42.3989 96.3129 40.9649 97.7409 40.0049C99.1809 39.0329 101.047 38.5469 103.339 38.5469C105.991 38.5469 107.917 39.0689 109.117 40.1129C110.329 41.1449 110.935 42.5969 110.935 44.4689V57.5189H107.245L106.903 54.1709C106.219 55.5749 105.367 56.5469 104.347 57.0869C103.327 57.6149 102.157 57.8789 100.837 57.8789ZM102.259 54.9089C102.979 54.9089 103.681 54.7409 104.365 54.4049C105.049 54.0569 105.613 53.6129 106.057 53.0729C106.501 52.5329 106.723 51.9569 106.723 51.3449V48.4109L104.437 48.4469C102.745 48.4709 101.383 48.7409 100.351 49.2569C99.3189 49.7729 98.8029 50.6489 98.8029 51.8849C98.8029 52.8329 99.1329 53.5769 99.7929 54.1169C100.453 54.6449 101.275 54.9089 102.259 54.9089ZM121.423 57.7889C119.815 57.7889 118.627 57.5369 117.859 57.0329C117.103 56.5169 116.611 55.8509 116.383 55.0349C116.167 54.2189 116.059 53.3729 116.059 52.4969V30.7709H120.343V51.9929C120.343 52.7969 120.505 53.4209 120.829 53.8649C121.165 54.3089 121.705 54.5669 122.449 54.6389L123.385 54.6749V57.4289C123.061 57.5369 122.725 57.6209 122.377 57.6809C122.041 57.7529 121.723 57.7889 121.423 57.7889ZM132.146 57.7889C130.538 57.7889 129.35 57.5369 128.582 57.0329C127.826 56.5169 127.334 55.8509 127.106 55.0349C126.89 54.2189 126.782 53.3729 126.782 52.4969V30.7709H131.066V51.9929C131.066 52.7969 131.228 53.4209 131.552 53.8649C131.888 54.3089 132.428 54.5669 133.172 54.6389L134.108 54.6749V57.4289C133.784 57.5369 133.448 57.6209 133.1 57.6809C132.764 57.7529 132.446 57.7889 132.146 57.7889ZM143.13 57.8789C141.342 57.8789 139.86 57.3989 138.684 56.4389C137.508 55.4669 136.92 54.0989 136.92 52.3349C136.92 50.2829 137.658 48.7349 139.134 47.6909C140.622 46.6469 142.992 46.1009 146.244 46.0529L149.016 45.9809V44.7209C149.016 43.7369 148.722 42.9689 148.134 42.4169C147.546 41.8649 146.646 41.5889 145.434 41.5889C144.522 41.6009 143.694 41.8169 142.95 42.2369C142.206 42.6569 141.714 43.3469 141.474 44.3069H137.748C137.844 42.3989 138.606 40.9649 140.034 40.0049C141.474 39.0329 143.34 38.5469 145.632 38.5469C148.284 38.5469 150.21 39.0689 151.41 40.1129C152.622 41.1449 153.228 42.5969 153.228 44.4689V57.5189H149.538L149.196 54.1709C148.512 55.5749 147.66 56.5469 146.64 57.0869C145.62 57.6149 144.45 57.8789 143.13 57.8789ZM144.552 54.9089C145.272 54.9089 145.974 54.7409 146.658 54.4049C147.342 54.0569 147.906 53.6129 148.35 53.0729C148.794 52.5329 149.016 51.9569 149.016 51.3449V48.4109L146.73 48.4469C145.038 48.4709 143.676 48.7409 142.644 49.2569C141.612 49.7729 141.096 50.6489 141.096 51.8849C141.096 52.8329 141.426 53.5769 142.086 54.1169C142.746 54.6449 143.568 54.9089 144.552 54.9089ZM158.352 57.5189V38.9069H162.636V41.5709C163.068 40.8509 163.734 40.1909 164.634 39.5909C165.546 38.9909 166.746 38.6909 168.234 38.6909C169.386 38.6909 170.454 38.9189 171.438 39.3749C172.434 39.8309 173.232 40.5449 173.832 41.5169C174.444 42.4889 174.75 43.7429 174.75 45.2789V57.5189H170.358V45.8009C170.358 44.5889 170.016 43.6829 169.332 43.0829C168.66 42.4829 167.82 42.1829 166.812 42.1829C165.756 42.1829 164.808 42.4469 163.968 42.9749C163.14 43.5029 162.726 44.3009 162.726 45.3689V57.5189H158.352Z" fill="white"/>
</svg>
